# xmcd CD database file
#
# Track frame offsets:
#	150
#	10505
#	23823
#	36223
#	55021
#	66123
#	79799
#	90520
#	104329
#	115846
#	125889
#	136688
#	149781
#	161109
#	177431
#	188718
#
# Disc length: 2651 seconds
#
# Revision: 2
# Processed by: cddbd v1.4b41PL1 Copyright (c) Steve Scherf et al.
# Submitted via: Feurio! 1.60 - http://www.feurio.com
#
DISCID=d70a5910,e50a5910
DTITLE=Rolling Stones - Volume 1
DYEAR=1900
DGENRE=
TTITLE0=Look What You've Done
TTITLE1=Time is on My Side
TTITLE2=Mercy Mercy
TTITLE3=Down Home Girl
TTITLE4=I'm Free
TTITLE5=Little Red Rooster
TTITLE6=Hitch Hike
TTITLE7=What A Shame
TTITLE8=Money That's What I Want
TTITLE9=Play With Fire
TTITLE10=That's How Strong My Love Is
TTITLE11=Down the Road A Piece
TTITLE12=Now I've Got a Witness
TTITLE13=The Last Time
TTITLE14=Surprise Surprise
TTITLE15=I Just Wanna Make Love to You
EXTD=
EXTT0=
EXTT1=
EXTT2=
EXTT3=
EXTT4=
EXTT5=
EXTT6=
EXTT7=
EXTT8=
EXTT9=
EXTT10=
EXTT11=
EXTT12=
EXTT13=
EXTT14=
EXTT15=
PLAYORDER=
